<?xml version="1.0" encoding="UTF-8"?>
<svg id="Layer_1" data-name="Layer 1" xmlns="http://www.w3.org/2000/svg" viewBox="0 0 250 60">
  <defs>
    <style>
      .cls-1 {
        letter-spacing: 0em;
      }

      .cls-2 {
        stroke: #231f20;
        stroke-width: 3px;
      }

      .cls-2, .cls-3, .cls-4, .cls-5, .cls-6 {
        stroke-miterlimit: 10;
      }

      .cls-3 {
        fill: #fc3;
      }

      .cls-3, .cls-4, .cls-5 {
        stroke: #ffde21;
      }

      .cls-4 {
        stroke-width: 4px;
      }

      .cls-4, .cls-5, .cls-6, .cls-7 {
        fill: none;
      }

      .cls-5 {
        stroke-width: 2px;
      }

      .cls-8 {
        font-family: Montserrat-Bold, Montserrat;
        font-size: 30.01px;
        font-weight: 700;
      }

      .cls-6 {
        stroke: #000;
        stroke-width: 5px;
      }

      .cls-9 {
        letter-spacing: 0em;
      }
    </style>
  </defs>
  <text class="cls-8" transform="translate(53.92 39.55) scale(.98 1)"><tspan x="0" y="0" xml:space="preserve">D   </tspan><tspan class="cls-9" x="50.26" y="0">R</tspan><tspan class="cls-1" x="72.02" y="0" xml:space="preserve">JIGH   R</tspan></text>
  <ellipse class="cls-4" cx="90.57" cy="29.01" rx="8.44" ry="8.5"/>
  <ellipse class="cls-7" cx="90.57" cy="29.01" rx="5.22" ry="5.3"/>
  <g>
    <ellipse class="cls-3" cx="88.22" cy="27.2" rx=".92" ry=".94" transform="translate(-1.15 4.05) rotate(-2.61)"/>
    <ellipse class="cls-3" cx="93.23" cy="27.2" rx=".92" ry=".94" transform="translate(-1.14 4.28) rotate(-2.61)"/>
    <ellipse class="cls-3" cx="88.12" cy="32.25" rx=".92" ry=".94" transform="translate(-1.38 4.05) rotate(-2.61)"/>
    <ellipse class="cls-3" cx="93.13" cy="32.31" rx=".92" ry=".94" transform="translate(-1.38 4.28) rotate(-2.61)"/>
  </g>
  <ellipse class="cls-6" cx="208.17" cy="28.95" rx="8.44" ry="8.5"/>
  <ellipse class="cls-7" cx="207.95" cy="28.84" rx="6.95" ry="7.06"/>
  <g>
    <path class="cls-2" d="M25.27,18.5c1.03,.03,1.85,.38,2.51,.92,1.62,1.31,3.25,2.62,4.87,3.93,1.96,1.58,3.92,3.16,5.88,4.74,1.69,1.36,3.39,2.73,5.08,4.09,1.41,1.13,2.83,2.26,4.24,3.39,.45,.36,.46,.96-.01,1.24-.21,.13-.57,.12-.76-.03-1.07-.86-2.14-1.72-3.2-2.58-2.2-1.77-4.41-3.55-6.62-5.32-1.77-1.42-3.54-2.85-5.3-4.27-1.53-1.24-3.04-2.48-4.58-3.71-.65-.52-1.44-.87-2.53-.75-.57,.06-1.06,.23-1.44,.52-.8,.61-1.58,1.23-2.36,1.85-2.28,1.83-4.55,3.65-6.82,5.48-1.72,1.39-3.44,2.78-5.16,4.18-1.87,1.51-3.75,3.02-5.61,4.53-.36,.29-.91,.21-1.11-.1-.24-.37-.13-.76,.28-1.08,.81-.64,1.6-1.29,2.4-1.94,1.77-1.42,3.54-2.84,5.31-4.27,1.58-1.27,3.15-2.54,4.72-3.81,1.65-1.33,3.31-2.65,4.96-3.98,.89-.71,1.78-1.43,2.66-2.15,.55-.45,1.23-.75,2.07-.89,.14-.02,.3-.01,.5-.02Z"/>
    <circle class="cls-5" cx="24.95" cy="33.28" r="7.08"/>
    <g>
      <ellipse class="cls-3" cx="22.78" cy="30.72" rx=".92" ry=".94" transform="translate(-1.38 1.07) rotate(-2.61)"/>
      <ellipse class="cls-3" cx="27.79" cy="30.73" rx=".92" ry=".94" transform="translate(-1.37 1.3) rotate(-2.61)"/>
      <ellipse class="cls-3" cx="22.68" cy="35.78" rx=".92" ry=".94" transform="translate(-1.61 1.07) rotate(-2.61)"/>
      <ellipse class="cls-3" cx="27.69" cy="35.84" rx=".92" ry=".94" transform="translate(-1.6 1.3) rotate(-2.61)"/>
    </g>
  </g>
</svg>